<svg xmlns="http://www.w3.org/2000/svg" viewBox="0 0 168.61 186.08">

  <defs>
    <style>.cls-1{fill:#ffeb5a;}.cls-2{fill:none;stroke:#fff;stroke-miterlimit:10;stroke-width:8px;}</style>
  </defs>
  <g id="BG_Bars" data-name="BG Bars">
    <rect x="0.51" y="149.33" width="168.1" height="19.07"/>

    <rect x="0.56" y="122.84" width="168.05" height="20.62"/>
    <rect x="0.56" y="95.18" width="168.05" height="22.07"/>
    <rect x="0.56" y="70.41" width="168.05" height="20.34"/>
    <rect x="0.56" y="44.37" width="168.05" height="20.19"/>
    <rect y="17.96" width="168.05" height="19.01"/>
    <path d="M103,87.68H271a13.52,13.52,0,0,0-13.51-13.52h-141A13.52,13.52,0,0,0,103,87.68Z" transform="translate(-102.97 -74.16)"/>
    <path d="M271.58,246.73h-168A13.51,13.51,0,0,0,117,260.25h141A13.52,13.52,0,0,0,271.58,246.73Z" transform="translate(-102.97 -74.16)"/>
  </g>
  <g id="Hourglass">
    <polygon id="Hourglass-2" data-name="Hourglass" class="cls-1" points="149.45 163.16 125.16 91.93 149.45 21.69 18.38 21.69 44.21 92.42 18.38 163.15 149.45 163.16"/>
  </g>
  <g id="C">
    <path id="C-2" data-name="C" class="cls-2" d="M213.23,186.62c-16.37-13.15-59-8.94-54.73,18.22a6.7,6.7,0,0,0,.44,1.59c9.84,18.64,44.49,19.82,56.86,3.39" transform="translate(-102.97 -74.16)"/>
  </g>
  <g id="T">
    <g id="T-2" data-name="T">
      <line class="cls-2" x1="52.01" y1="40.47" x2="116.05" y2="40.47"/>
      <line class="cls-2" x1="84.03" y1="86.14" x2="84.03" y2="40.47"/>
    </g>
  </g>
</svg>
