<?xml version="1.0" encoding="utf-8"?>
<!-- Generator: Adobe Illustrator 24.2.3, SVG Export Plug-In . SVG Version: 6.00 Build 0)  -->
<svg version="1.1" xmlns="https://www.w3.org/2000/svg" xmlns:xlink="https://www.w3.org/1999/xlink" x="0px" y="0px"
	 viewBox="0 0 1366 768" style="enable-background:new 0 0 1366 768;" xml:space="preserve">
<style type="text/css">

	@keyframes sparkle-animation {
	  0% {transform: rotate(0deg);}
	  100% {transform: translateX(1440deg);}
	}

	.st0{fill:none;}
	.st1{fill:#FFEB5A;}
	.st2{fill:none;stroke:#FFFFFF;stroke-width:5;stroke-miterlimit:10;}
	.cls-1{fill:#fff;stroke:#000;stroke-miterlimit:10;stroke-width:0.1px;}
	.sparkles{
		transform-origin: center;



	}
	 .starFlash{}

</style>

<!--
<g id="bg_rect">
	<rect id="bg" x="0" y="0.5" class="st0" width="1366" height="768"/>
</g> -->

<g id="BlackBars">
<!-- top -->
	<!-- M631.4,338.4 -->
	<path d="M631.4,338.4h103.1c0-4.6-3.7-8.3-8.3-8.3h-86.5C635.1,330.1,631.4,333.8,631.4,338.4z">
		<animateMotion
				dur="1.8s"
				path="m-631.4,0 L0,0"
				fill = "freeze"
 			/>

	</path>


	<!-- <rect x="631.4" y="421.7" width="103.1" height="11.7"> -->
	<rect width="103.1" height="11.7">
		<animateMotion
			dur="2.3s"
      path="M0,421.7 L631.4,421.7"
			fill = "freeze" />
	</rect>


<!-- x="631.4" y="405.4"  -->
	<rect width="103.1" height="12.7">

		<animateMotion
			dur="2.6s"
			path="M0,405.4 L631.4,405.4"
			fill = "freeze" />

	</rect>


	<!-- x="631.4" y="388.5"  -->
	<rect width="103.1" height="13.5">

		<animateMotion
			dur="2.1s"
			path="M0,388.5 L631.4,388.5"
			fill = "freeze" />


	</rect>


<!-- x="631.4" y="373.3"  -->
	<rect width="103.1" height="12.5">

		<animateMotion
			dur="2.s"
			path="M0,373.3 L631.4,373.3"
			fill = "freeze" />

	</rect>


<!-- x="631.4" y="357.3"  -->
	<rect width="103.1" height="12.4">

		<animateMotion
			dur="1.9s"
			path="M0,357.3 L631.4,357.3"
			fill = "freeze" />

	</rect>

	<!-- x="631.4" y="341.1" -->
	<rect  width="103.1" height="11.7">

		<animateMotion
			dur="2.05s"
			path="M0,341.1 L631.4,341.1"
			fill = "freeze" />

	</rect>


<!-- bottom -->
	<path d="M734.5,435.9H631.4c0,4.6,3.7,8.3,8.3,8.3h86.5C730.8,444.2,734.5,440.5,734.5,435.9C734.5,435.9,734.5,435.9,734.5,435.9z">
		<animateMotion
					dur="2s"
					path="m-631.4,0 L0,0"
					fill = "freeze" />
	</path>


<!-- tandy hourglass -->
	<polygon id="Hourglass_1_" class="st1" points="723.2,430.2 708.3,386.5 723.2,343.4 642.8,343.4 658.6,386.8 642.8,430.2">



		<animateMotion
			dur="2.8s"
			path="m800,0 L0,0"
			fill = "freeze"

			/>


	</polygon>


<!-- C -->
	<path id="C_1_" class="st2" d="M698.8,399.1c-9.9-8.1-35.7-5.5-33.1,11.2c0.1,0.3,0.1,0.7,0.3,1c5.9,11.4,26.9,12.1,34.3,2.1">

		<animateMotion
			dur="3s"
			path="m0,399.1 L0,0"
			fill = "freeze" />

	</path>


<!-- T :: its two paths -->
	<g id="T_1_">
		<line class="st2" x1="663.3" y1="354.9" x2="702.6" y2="354.9"/>
		<line class="st2" x1="683" y1="382.9" x2="683" y2="354.9"/>

		<animateMotion
			dur="3.s"
			path="m0,-382.9 L0,0"
			fill = "freeze" />

	</g>


	<!-- sparkles -->
	<g id="sparkles" class="sparkles">



				<polygon class="cls-1" points="712.82 335.09 711.31 341.46 717.47 339.26 711.55 342.05 717.11 345.5 711.24 342.61 712.01 349.11 710.61 342.71 706 347.37 710.14 342.29 703.62 341.59 710.17 341.65 706.65 336.13 710.69 341.28 712.82 335.09">
					<animate
						attributeName="visibility"
						values = "hidden;visible"
						begin = "0s"
						dur = "6.1s"
						calcMode="discrete"

					/>
				</polygon>

				<polygon class="cls-1" points="703.68 341.25 702.96 344.29 705.91 343.24 703.08 344.57 705.74 346.22 702.93 344.83 703.3 347.94 702.63 344.89 700.43 347.11 702.4 344.68 699.3 344.35 702.42 344.38 700.74 341.74 702.67 344.2 703.68 341.25">
					<animate
						attributeName="visibility"
						values = "hidden;visible"
						begin = "0s"
						dur = "6.s"
						calcMode="discrete"

					/>
				</polygon>

				<polygon class="cls-1" points="722.75 330.29 723.36 342.82 733.53 335.49 724.12 343.77 736.2 347.15 723.85 344.96 728.73 356.51 722.75 345.49 716.76 356.51 721.65 344.96 709.3 347.15 721.38 343.77 711.96 335.49 722.14 342.82 722.75 330.29">
					<animate
						attributeName="visibility"
						values = "hidden;visible"
						begin = "0s"
						dur = "6.15s"
						calcMode="discrete"
						repeatCount="infinite"
					/>
				</polygon>

	</g>

</g>

</svg>
